# xmcd CD database file
#
# Track frame offsets:
#	150
#	17999
#	35994
#	49803
#	66478
#	83555
#	88532
#	114204
#	127143
#	143848
#	169992
#	182094
#
# Disc length: 2444 seconds
#
# Revision: 6
# Processed by: cddbd v1.5.2PL0 Copyright (c) Steve Scherf et al.
# Submitted via: CDex 1.70beta2
#
DISCID=ab098a0c
DTITLE=Hobo Blues Band - Vadászat [CD2)
DYEAR=1984
DGENRE=Blues
TTITLE0=A vadállatok tánca
TTITLE1=A tigris és a medve utolsó találkozása
TTITLE2=Az áldozatok áriája
TTITLE3=Az üldözés rövid de véres
TTITLE4=A zsákmány terítéken, szépen elrendezve
TTITLE5=A vak zenészek kara lassan lépked a fûben
TTITLE6=A vadászok bevonulása és az ünnepség kezdete
TTITLE7=A lakoma/részlet/: (Arany János: A walesi bárdok és Erkel Ferenc: Bánk Bán c. művébõl)
TTITLE8=A vendégsereg tánca
TTITLE9=Az orgia/Pilinszky János: Négysoros c.verse/
TTITLE10=A bolond levele a kisfiúnak
TTITLE11=Ez elment vadászni
EXTD=YEAR: 1984
EXTT0=
EXTT1=
EXTT2=
EXTT3=
EXTT4=
EXTT5=
EXTT6=
EXTT7=
EXTT8=
EXTT9=
EXTT10=
EXTT11=
PLAYORDER=
